PLOT

The Orphan Killer is a tour de force murder flick that defies classification. It goes far beyond
current trends in gore and breaks open a new suffering genre of horror..
 
http://www.imdb.com/title/tt1621446/


Encoded By .......: BigPerm1828
Runtime ..........: 1h 22mn
File Size ........: 575 MiB
Resolution .......: 640 x 272
IMDb URL .........: http://www.imdb.com/title/tt1179071/
Genre ............: Horror
Language .........: English
Subtitles ........: None
Video
ID : 0
Format : MPEG-4 Visual
Format profile : Simple@L3
Format settings, BVOP : No
Format settings, QPel : No
Format settings, GMC : No warppoints
Format settings, Matrix : Default (H.263)
Codec ID : XVID
Codec ID/Hint : XviD
Duration : 1h 22mn
Bit rate : 707 Kbps
Width : 640 pixels
Height : 272 pixels
Display aspect ratio : 16:9
Frame rate : 29.970 fps
Color space : YUV
Chroma subsampling : 4:2:0
Bit depth : 8 bits
Scan type : Progressive
Compression mode : Lossy
Bits/(Pixel*Frame) : 0.136
Stream size : 417 MiB (73%)
Writing library : XviD 64

Audio
ID : 1
Format : AC-3
Format/Info : Audio Coding 3
Mode extension : CM (complete main)
Codec ID : 2000
Duration : 1h 22mn
Bit rate mode : Constant
Bit rate : 256 Kbps
Channel(s) : 6 channels
Channel positions : Front: L C R, Side: L R, LFE
Sampling rate : 48.0 KHz
Bit depth : 16 bits
Compression mode : Lossy
Stream size : 151 MiB (26%)
Alignment : Split accross interleaves
Interleave, duration : 33 ms (1.00 video frame)
Interleave, preload duration : 500 ms
